<svg xmlns="http://www.w3.org/2000/svg" viewBox="0 0 600 800" role="img" aria-labelledby="anime-03-title anime-03-description">
  <title id="anime-03-title">Nori — original friendly anime character</title>
  <desc id="anime-03-description" xml:lang="he">חובב גינון עם תלתלים ירוקים, אפוד כיסים ומגפי עבודה. דמות אנימה מקורית באורך מלא.</desc>
  <defs><linearGradient id="anime-03-hair" x1="0" y1="0" x2=".8" y2="1"><stop stop-color="#628873"/><stop offset=".38" stop-color="#264c42"/><stop offset="1" stop-color="#264c42"/></linearGradient><linearGradient id="anime-03-iris" x1="0" y1="0" x2="0" y2="1"><stop stop-color="#343744"/><stop offset=".55" stop-color="#7d5a2e"/><stop offset="1" stop-color="#deb968"/></linearGradient></defs>
  <g id="anime-03-layer-legs" data-concept="legs"><g transform="translate(-6.000000000000005 0) scale(1.02 1)"><g stroke-linecap="round" stroke-linejoin="round"><path d="M253 431Q270 423 284 440L285 503 276 563 270 669 247 669 244 605 246 548 241 484ZM310 435Q327 424 344 437L356 492 353 549 363 665 339 670 321 610 317 554 303 492Z" fill="#d9a47f" stroke="#343744" stroke-width="1.7"/><path d="M255 550L257 626M339 553L347 624" fill="none" stroke="#bd825f" stroke-width="1.2"/></g></g></g>
  <g id="anime-03-layer-thighs" data-concept="thighs"><g transform="translate(-6.000000000000005 0) scale(1.02 1)"><g stroke-linecap="round" stroke-linejoin="round"><path d="M253 432Q269 425 283 441L283 495 277 524Q261 532 246 522L242 483ZM310 438Q327 426 343 439L354 492 349 519Q334 532 319 522L306 486Z" fill="#d9a47f" stroke="none" stroke-width="2"/><path d="M250 486L252 507M340 485L343 506" fill="none" stroke="#bd825f" stroke-width="1.2"/></g></g></g>
  <g id="anime-03-layer-knees" data-concept="knees"><g transform="translate(-6.000000000000005 0) scale(1.02 1)"><g stroke-linecap="round" stroke-linejoin="round"><path d="M249 535Q260 530 274 535L274 554Q262 561 249 554ZM325 534Q338 529 350 535L351 553Q339 560 327 554Z" fill="#d9a47f" stroke="none" stroke-width="2"/><path d="M254 546Q261 542 268 546M330 545Q338 541 345 545" fill="none" stroke="#bd825f" stroke-width="1.2"/></g></g></g>
  <g id="anime-03-layer-ankles" data-concept="ankles"><g transform="translate(-6.000000000000005 0) scale(1.02 1)"><g stroke-linecap="round" stroke-linejoin="round"><path d="M248 655L270 655 271 692 246 693ZM339 654L361 653 368 691 342 694Z" fill="#d9a47f" stroke="#343744" stroke-width="1.7"/></g></g></g>
  <g id="anime-03-layer-feet" data-concept="feet"><g transform="translate(-6.000000000000005 0) scale(1.02 1)"><g stroke-linecap="round" stroke-linejoin="round"><path d="M247 683L270 683 274 713Q262 725 238 725H212Q202 721 211 712L233 701ZM342 684L363 683 379 700 399 713Q408 723 394 728L347 724 337 710Z" fill="#d9a47f" stroke="#343744" stroke-width="1.7"/><path d="M218 714L219 720M225 711L227 720M390 713L387 720M382 710L379 719" fill="none" stroke="#bd825f" stroke-width="1.2"/></g></g></g>
  <g id="anime-03-layer-heels" data-concept="heels"><g transform="translate(-6.000000000000005 0) scale(1.02 1)"><g stroke-linecap="round" stroke-linejoin="round"><path d="M259 701Q270 697 272 709L270 720 258 721Q252 711 259 701ZM343 702Q353 697 357 709L354 722 341 720Q337 711 343 702Z" fill="#d9a47f" stroke="none" stroke-width="2"/><path d="M259 718L268 718M343 718L353 720" fill="none" stroke="#bd825f" stroke-width="1.2"/></g></g></g>
  <g id="anime-03-layer-chest" data-concept="chest"><g transform="translate(-6.000000000000005 0) scale(1.02 1)"><g stroke-linecap="round" stroke-linejoin="round"><path d="M263 262Q300 250 337 263L347 311 333 367Q300 377 266 367L251 313Z" fill="#d9a47f" stroke="#343744" stroke-width="1.7"/><path d="M325 265L337 272 344 310 331 362 319 366Q335 308 325 265Z" fill="#bd825f" stroke="none" stroke-width="2"/></g></g></g>
  <g id="anime-03-layer-waist" data-concept="waist"><g transform="translate(-6.000000000000005 0) scale(1.02 1)"><g stroke-linecap="round" stroke-linejoin="round"><path d="M266 358Q300 369 334 358L344 429Q300 450 247 430Z" fill="#d9a47f" stroke="#343744" stroke-width="1.7"/><path d="M249 417Q295 428 342 416L345 448 305 466 294 449 249 454Z" fill="#c4bac0" stroke="#343744" stroke-width="1.5"/></g></g></g>
  <g id="anime-03-layer-shoulders" data-concept="shoulders"><g transform="translate(-6.000000000000005 0) scale(1.02 1)"><g stroke-linecap="round" stroke-linejoin="round"><path d="M262 260Q240 256 228 276L226 293 248 302 272 276ZM335 262Q356 258 370 278L375 294 353 304 326 277Z" fill="#d9a47f" stroke="#343744" stroke-width="1.7"/></g></g></g>
  <g id="anime-03-layer-arms" data-concept="arms"><g transform="translate(-6.000000000000005 0) scale(1.02 1)"><g stroke-linecap="round" stroke-linejoin="round"><path d="M228 280Q198 310 201 351L184 430 204 432 229 355Q232 311 256 282Z" fill="#d9a47f" stroke="#343744" stroke-width="1.7"/><path d="M208 374L190 417" fill="none" stroke="#bd825f" stroke-width="1.2"/><path d="M345 280Q365 310 368 351L395 427 415 429 396 355Q399 311 373 282Z" fill="#d9a47f" stroke="#343744" stroke-width="1.7"/><path d="M389 374L409 414" fill="none" stroke="#bd825f" stroke-width="1.2"/></g></g></g>
  <g id="anime-03-layer-elbows" data-concept="elbows"><g transform="translate(-6.000000000000005 0) scale(1.02 1)"><g stroke-linecap="round" stroke-linejoin="round"><path d="M204 341Q215 337 226 342L225 359Q215 365 205 360Z" fill="#d9a47f" stroke="none" stroke-width="2"/><path d="M210 351Q215 355 220 351" fill="none" stroke="#bd825f" stroke-width="1.2"/><path d="M371 341Q382 337 393 342L392 359Q382 365 372 360Z" fill="#d9a47f" stroke="none" stroke-width="2"/><path d="M377 351Q382 355 387 351" fill="none" stroke="#bd825f" stroke-width="1.2"/></g></g></g>
  <g id="anime-03-layer-wrists" data-concept="wrists"><g transform="translate(-6.000000000000005 0) scale(1.02 1)"><g stroke-linecap="round" stroke-linejoin="round"><path d="M184 426L204 426 204 447 184 447Z" fill="#d9a47f" stroke="#343744" stroke-width="1.7"/><path d="M395 423L415 423 415 444 395 444Z" fill="#d9a47f" stroke="#343744" stroke-width="1.7"/></g></g></g>
  <g id="anime-03-layer-neck" data-concept="neck"><g transform="translate(-6.000000000000005 0) scale(1.02 1)"><g stroke-linecap="round" stroke-linejoin="round"><path d="M283 216L281 258Q300 276 319 257L317 215Z" fill="#d9a47f" stroke="#343744" stroke-width="1.7"/><path d="M284 221Q299 233 316 220L317 239Q298 250 283 237Z" fill="#bd825f" stroke="none" stroke-width="2"/><path d="M285 251Q298 260 311 252" fill="none" stroke="#bd825f" stroke-width="1.2"/></g></g></g>
  <g id="anime-03-layer-head" data-concept="head"><g transform="translate(-6.000000000000005 0) scale(1.02 1)"><g stroke-linecap="round" stroke-linejoin="round"><path d="M254 154Q251 111 299 106Q347 108 347 152L345 185Q338 213 307 230Q300 234 291 230Q261 215 256 188Z" fill="#d9a47f" stroke="#343744" stroke-width="1.7"/><path d="M337 147L346 153 344 187Q335 214 307 230L320 213 333 188Z" fill="#bd825f" stroke="none" stroke-width="2"/></g></g></g>
  <g id="anime-03-layer-forehead" data-concept="forehead"><g transform="translate(-6.000000000000005 0) scale(1.02 1)"><g stroke-linecap="round" stroke-linejoin="round"><path d="M270 145Q300 132 330 145L329 164Q300 169 271 164Z" fill="#d9a47f" stroke="none" stroke-width="2"/><path d="M283 145Q297 140 308 143L305 147 284 150Z" fill="#f1e5cb" stroke="none" stroke-width="0"/></g></g></g>
  <g id="anime-03-layer-cheeks" data-concept="cheeks"><g transform="translate(-6.000000000000005 0) scale(1.02 1)"><g stroke-linecap="round" stroke-linejoin="round"><ellipse cx="273" cy="198" rx="9" ry="4" fill="#c97e73" stroke="none" stroke-width="1"/><ellipse cx="326" cy="198" rx="9" ry="4" fill="#c97e73" stroke="none" stroke-width="1"/><path d="M269 197l2 2m3-3 2 2m45-1 2 2m3-3 2 2" fill="none" stroke="#bd825f" stroke-width="0.7"/></g></g></g>
  <g id="anime-03-layer-jaw" data-concept="jaw"><g transform="translate(-6.000000000000005 0) scale(1.02 1)"><g stroke-linecap="round" stroke-linejoin="round"><path d="M257 193Q265 211 287 224L282 224Q264 216 258 205ZM342 194Q335 212 313 226L317 225Q337 215 342 203Z" fill="#d9a47f" stroke="none" stroke-width="2"/><path d="M263 205Q270 216 282 221M318 220Q331 211 337 202" fill="none" stroke="#bd825f" stroke-width="1.2"/></g></g></g>
  <g id="anime-03-layer-chin" data-concept="chin"><g transform="translate(-6.000000000000005 0) scale(1.02 1)"><g stroke-linecap="round" stroke-linejoin="round"><path d="M291 219Q300 222 309 219L310 226Q300 234 289 226Z" fill="#d9a47f" stroke="none" stroke-width="2"/><path d="M295 226Q300 228 305 225" fill="none" stroke="#bd825f" stroke-width="1.2"/></g></g></g>
  <g id="anime-03-layer-ears" data-concept="ears"><g transform="translate(-6.000000000000005 0) scale(1.02 1)"><g stroke-linecap="round" stroke-linejoin="round"><path d="M256 170Q242 161 245 180Q247 192 258 193ZM344 171Q359 161 355 181Q352 193 342 193Z" fill="#d9a47f" stroke="#343744" stroke-width="1.7"/><path d="M249 175Q255 172 254 184M350 174Q345 174 347 185" fill="none" stroke="#bd825f" stroke-width="1.2"/></g></g></g>
  <g id="anime-03-layer-eyes" data-concept="eyes"><g transform="translate(-6.000000000000005 0) scale(1.02 1)"><g stroke-linecap="round" stroke-linejoin="round"><path d="M266 169Q277 164 288 169M311 169Q322 164 332 169" fill="none" stroke="#264c42" stroke-width="2.1"/><path d="M265 180Q276 171 288 180Q280 190 267 185ZM311 180Q321 171 333 180L331 185Q319 190 311 180Z" fill="#fffaf2" stroke="#bd825f" stroke-width="0.8"/><ellipse cx="278" cy="180.5" rx="5.3" ry="7" fill="url(#anime-03-iris)" stroke="#343744" stroke-width="0.8"/><ellipse cx="321" cy="180.5" rx="5.3" ry="7" fill="url(#anime-03-iris)" stroke="#343744" stroke-width="0.8"/><ellipse cx="279" cy="181" rx="2.1" ry="4.6" fill="#343744" stroke="none" stroke-width="1"/><ellipse cx="320" cy="181" rx="2.1" ry="4.6" fill="#343744" stroke="none" stroke-width="1"/><path d="M263 178l2 2Q276 171 288 180M311 180Q321 171 333 180l2-3" fill="none" stroke="#343744" stroke-width="2.1"/><ellipse cx="276.5" cy="178" rx="1.7" ry="2.1" fill="#fff" stroke="none" stroke-width="1"/><ellipse cx="319.5" cy="178" rx="1.7" ry="2.1" fill="#fff" stroke="none" stroke-width="1"/><ellipse cx="280" cy="184" rx="0.9" ry="1" fill="#fff8da" stroke="none" stroke-width="1"/><ellipse cx="323" cy="184" rx="0.9" ry="1" fill="#fff8da" stroke="none" stroke-width="1"/></g></g></g>
  <g id="anime-03-layer-nose" data-concept="nose"><g transform="translate(-6.000000000000005 0) scale(1.02 1)"><g stroke-linecap="round" stroke-linejoin="round"><path d="M300 183L296 197 301 199M303 197l2-1" fill="none" stroke="#bd825f" stroke-width="1.2"/><path d="M300 187l-1 6" fill="none" stroke="#f1e5cb" stroke-width="1.2"/></g></g></g>
  <g id="anime-03-layer-mouth" data-concept="mouth"><g transform="translate(-6.000000000000005 0) scale(1.02 1)"><g stroke-linecap="round" stroke-linejoin="round"><path d="M289 209Q300 215 312 208Q306 218 299 217Q293 216 289 209Z" fill="#995e5d" stroke="#865458" stroke-width="1"/><path d="M292 211Q301 214 308 210L306 213Q300 216 295 213Z" fill="#fff6e4" stroke="none" stroke-width="2"/></g></g></g>
  <g id="anime-03-layer-lips" data-concept="lips"><g transform="translate(-6.000000000000005 0) scale(1.02 1)"><g stroke-linecap="round" stroke-linejoin="round"><path d="M289 209Q300 215 312 208M297 219Q302 220 305 218" fill="none" stroke="#b37772" stroke-width="1.3"/></g></g></g>
  <g id="anime-03-layer-trousers" data-concept="trousers"><g transform="translate(-6.000000000000005 0) scale(1.02 1)"><g stroke-linecap="round" stroke-linejoin="round"><path d="M246 408Q298 398 346 410L351 479 359 664Q347 675 330 667L307 540 300 477 287 538 278 669Q257 678 238 667L242 535 237 478Z" fill="#84785b" stroke="#343744" stroke-width="2"/><path d="M245 430L259 441 254 526 254 659 239 665 243 535 237 478ZM328 420L346 418 350 480 359 664 347 670 334 526Z" fill="#625d4c" stroke="none" stroke-width="2"/><path d="M266 469L258 521M330 477L337 516M247 545l20-5-7 13m73-15 15 8-12 4M247 644l22-4m64 1 18 5" fill="none" stroke="#f1e5cb" stroke-width="1.15"/><path d="M282 416L284 450 297 457M254 418l-5 22m79-22 6 22" fill="none" stroke="#625d4c" stroke-width="1.4"/><path d="M238 643L279 645 278 671Q255 681 237 670ZM328 644L359 641 362 667Q347 676 332 670Z" fill="#c0b18a" stroke="#343744" stroke-width="2"/><path d="M242 655l32 3m59-3 23-3" fill="none" stroke="#f1e5cb" stroke-width="1.4"/><path d="M242 467L271 468 267 500 242 502ZM324 464L347 469 350 500 327 498Z" fill="#9d916f" stroke="#625d4c" stroke-width="1.4"/><path d="M245 475l23 1m59-3 17 3" fill="none" stroke="#f1e5cb" stroke-width="1.3"/></g></g></g>
  <g id="anime-03-layer-boots" data-concept="boots"><g transform="translate(-6.000000000000005 0) scale(1.02 1)"><g stroke-linecap="round" stroke-linejoin="round"><path d="M236 607Q258 614 279 607L275 692 240 697Z" fill="#2e5148" stroke="#343744" stroke-width="2"/><path d="M264 616L276 613 275 690 264 694Z" fill="#283f49" stroke="none" stroke-width="2"/><path d="M235 607Q258 614 280 607L280 621Q258 627 235 620Z" fill="#507761" stroke="#343744" stroke-width="2"/><path d="M243 633l26 1m-26 13 25 1m-25 14 24 1m-24 14 23 1" fill="none" stroke="#f1e5cb" stroke-width="1.7"/><path d="M247 628l20 50m-20 0 20-50" fill="none" stroke="#deb968" stroke-width="1.5"/><path d="M245 684L273 684 276 713Q269 728 241 729H210Q200 724 207 712L230 701Z" fill="#70563e" stroke="#343744" stroke-width="2"/><path d="M245 694L255 695 248 715 209 721 206 717 230 702Z" fill="#507761" stroke="none" stroke-width="2"/><path d="M206 719Q239 726 275 713L274 725Q244 737 207 729Z" fill="#f1e5cb" stroke="#343744" stroke-width="1.4"/><path d="M214 727Q242 730 265 722" fill="none" stroke="#2e5148" stroke-width="1"/><path d="M246 686L260 688 251 711 232 714Z" fill="#2e5148" stroke="#343744" stroke-width="1"/><path d="M244 694l13 2m-17 4 14 1m-18 5 14 1" fill="none" stroke="#f1e5cb" stroke-width="1.9"/><path d="M252 687q-16-14-16-6t16 6q15-16 16-7t-16 7" fill="none" stroke="#f1e5cb" stroke-width="1.5"/><path d="M329 607Q351 614 372 607L368 692 333 697Z" fill="#2e5148" stroke="#343744" stroke-width="2"/><path d="M357 616L369 613 368 690 357 694Z" fill="#283f49" stroke="none" stroke-width="2"/><path d="M328 607Q351 614 373 607L373 621Q351 627 328 620Z" fill="#507761" stroke="#343744" stroke-width="2"/><path d="M336 633l26 1m-26 13 25 1m-25 14 24 1m-24 14 23 1" fill="none" stroke="#f1e5cb" stroke-width="1.7"/><path d="M340 628l20 50m-20 0 20-50" fill="none" stroke="#deb968" stroke-width="1.5"/><path d="M336 684L364 683 378 699 400 707Q411 717 404 728Q378 736 340 726L335 713Z" fill="#70563e" stroke="#343744" stroke-width="2"/><path d="M342 693L351 690 356 716 401 719 403 728 343 723Z" fill="#507761" stroke="none" stroke-width="2"/><path d="M339 716Q370 729 407 719L405 730Q374 740 340 728Z" fill="#f1e5cb" stroke="#343744" stroke-width="1.4"/><path d="M345 725Q374 734 399 726" fill="none" stroke="#2e5148" stroke-width="1"/><path d="M348 685L362 687 380 712 358 715Z" fill="#2e5148" stroke="#343744" stroke-width="1"/><path d="M352 693l14 2m-10 4 15 2m-11 4 15 2" fill="none" stroke="#f1e5cb" stroke-width="1.9"/><path d="M359 689q-18-18-16-5t16 5q16-14 17-6t-17 6" fill="none" stroke="#f1e5cb" stroke-width="1.5"/></g></g></g>
  <g id="anime-03-layer-shirt" data-concept="shirt"><g transform="translate(-6.000000000000005 0) scale(1.02 1)"><g stroke-linecap="round" stroke-linejoin="round"><path d="M228 262Q216 271 219 289Q192 319 195 354L178 427Q194 436 210 427L235 354Q237 317 264 288Q263 270 254 262Z" fill="#f1e5cb" stroke="#343744" stroke-width="2"/><path d="M252 280L264 288Q237 317 235 354L210 427 200 429 220 351Z" fill="#d8cbb5" stroke="none" stroke-width="2"/><path d="M231 294L237 311M184 413l12 5m-9-13 13 4" fill="none" stroke="#d8cbb5" stroke-width="1.2"/><path d="M178 419Q194 424 210 419L210 429Q194 436 178 429Z" fill="#f1e5cb" stroke="#343744" stroke-width="1.5"/><path d="M182 424Q194 429 206 424" fill="none" stroke="#f1e5cb" stroke-width="1"/><path d="M345 262Q333 271 336 289Q359 319 362 354L389 424Q405 433 421 424L402 354Q404 317 381 288Q380 270 371 262Z" fill="#f1e5cb" stroke="#343744" stroke-width="2"/><path d="M369 280L381 288Q404 317 402 354L421 424 411 426 387 351Z" fill="#d8cbb5" stroke="none" stroke-width="2"/><path d="M348 294L354 311M395 410l12 5m-9-13 13 4" fill="none" stroke="#d8cbb5" stroke-width="1.2"/><path d="M389 416Q405 421 421 416L421 426Q405 433 389 426Z" fill="#f1e5cb" stroke="#343744" stroke-width="1.5"/><path d="M393 421Q405 426 417 421" fill="none" stroke="#f1e5cb" stroke-width="1"/><path d="M270 252L285 248Q300 261 315 248L333 255 347 319 341 421Q301 432 252 419L255 322Z" fill="#f1e5cb" stroke="#343744" stroke-width="2"/><path d="M325 270L339 315 335 414 320 420 326 343Z" fill="#d8cbb5" stroke="none" stroke-width="2"/><path d="M282 246L300 262 285 281 269 258ZM317 246L300 262 314 281 332 258Z" fill="#fff6e5" stroke="#343744" stroke-width="1.4"/><path d="M300 266L301 417M263 348l9 14m57 17-11 8M263 410l22 3" fill="none" stroke="#b5a893" stroke-width="1.2"/><ellipse cx="300" cy="291" rx="2.8" ry="2.8" fill="#deb968" stroke="#2e5148" stroke-width="0.9"/><path d="M299.2 291h1.6" fill="none" stroke="#f1e5cb" stroke-width="0.8"/><ellipse cx="300" cy="317" rx="2.8" ry="2.8" fill="#deb968" stroke="#2e5148" stroke-width="0.9"/><path d="M299.2 317h1.6" fill="none" stroke="#f1e5cb" stroke-width="0.8"/><ellipse cx="300" cy="343" rx="2.8" ry="2.8" fill="#deb968" stroke="#2e5148" stroke-width="0.9"/><path d="M299.2 343h1.6" fill="none" stroke="#f1e5cb" stroke-width="0.8"/><ellipse cx="300" cy="369" rx="2.8" ry="2.8" fill="#deb968" stroke="#2e5148" stroke-width="0.9"/><path d="M299.2 369h1.6" fill="none" stroke="#f1e5cb" stroke-width="0.8"/><ellipse cx="300" cy="395" rx="2.8" ry="2.8" fill="#deb968" stroke="#2e5148" stroke-width="0.9"/><path d="M299.2 395h1.6" fill="none" stroke="#f1e5cb" stroke-width="0.8"/></g></g></g>
  <g id="anime-03-layer-vest" data-concept="vest"><g transform="translate(-6.000000000000005 0) scale(1.02 1)"><g stroke-linecap="round" stroke-linejoin="round"><path d="M269 252L285 258 288 410 248 421 247 296ZM317 256L334 252 354 292 345 419 311 410Z" fill="#507761" stroke="#343744" stroke-width="2"/><path d="M269 255L280 266 271 309 256 291ZM330 256L318 267 325 307 343 288Z" fill="#f1e5cb" stroke="#343744" stroke-width="1.4"/><path d="M252 303L262 311 258 407 248 416ZM334 309L345 294 345 414 332 411Z" fill="#2e5148" stroke="none" stroke-width="2"/><path d="M255 353H281L279 381Q268 387 257 381Z" fill="#507761" stroke="#2e5148" stroke-width="1.3"/><path d="M254 353H282L278 363 268 366 257 363Z" fill="#f1e5cb" stroke="#2e5148" stroke-width="1.2"/><ellipse cx="268" cy="360" rx="1.8" ry="1.8" fill="#deb968" stroke="#2e5148" stroke-width="0.6"/><path d="M316 353H342L340 381Q329 387 318 381Z" fill="#507761" stroke="#2e5148" stroke-width="1.3"/><path d="M315 353H343L339 363 329 366 318 363Z" fill="#f1e5cb" stroke="#2e5148" stroke-width="1.2"/><ellipse cx="329" cy="360" rx="1.8" ry="1.8" fill="#deb968" stroke="#2e5148" stroke-width="0.6"/><path d="M278 312l-4 93m46-92 6 93" fill="none" stroke="#deb968" stroke-width="1.7"/><path d="M262 315q13-15 20-3-13 17-20 3Z" fill="#deb968" stroke="#2e5148" stroke-width="1"/><path d="M264 317l13-4m-7 2-1-5" fill="none" stroke="#2e5148" stroke-width="0.8"/></g></g></g>
  <g id="anime-03-layer-belt" data-concept="belt"><g transform="translate(-6.000000000000005 0) scale(1.02 1)"><g stroke-linecap="round" stroke-linejoin="round"><path d="M252 413Q301 423 341 414L341 428Q299 438 251 427Z" fill="#89623f" stroke="#343744" stroke-width="2"/><rect x="289" y="417" width="22" height="16" rx="2" fill="#deb968" stroke="#343744" stroke-width="1.5"/><rect x="294" y="421" width="12" height="8" rx="1" fill="#2e5148" stroke="none" stroke-width="1.5"/><path d="M295 425h14" fill="none" stroke="#f1e5cb" stroke-width="1.6"/></g></g></g>
  <g id="anime-03-layer-hair" data-concept="hair"><g transform="translate(-6.000000000000005 0) scale(1.02 1)"><g stroke-linecap="round" stroke-linejoin="round"><path d="M249 167Q239 159 243 143Q231 130 244 116Q241 101 258 98Q260 80 277 87Q292 73 307 86Q326 78 336 94Q355 94 353 112Q368 123 356 139L356 161 343 180 338 149 326 133 314 152 306 136 290 155 282 138 270 157 262 149 258 179Z" fill="url(#anime-03-hair)" stroke="#343744" stroke-width="2"/><path d="M249 119Q252 99 271 103Q269 88 282 94L299 89 310 95 298 104 279 113 264 128Z" fill="#628873" stroke="none" stroke-width="2"/><path d="M250 136q0-13 13-17m10-12q11-12 24-9m13 1q18-1 24 13m-56 7-7 22m31-32-7 23m27-17 12 14m14-3 4 20" fill="none" stroke="#628873" stroke-width="1.3"/><path d="M246 145l8-9m31-7 3 17m35-24-9 20M265 102q7-7 14-6" fill="none" stroke="#244237" stroke-width="1.2"/></g></g></g>
  <g id="anime-03-layer-hands" data-concept="hands"><g transform="translate(-6.000000000000005 0) scale(1.02 1)"><g stroke-linecap="round" stroke-linejoin="round"><path d="M184 442Q179 453 183 465L203 467Q208 455 204 442Z" fill="#d9a47f" stroke="#343744" stroke-width="1.7"/><path d="M395 439Q390 450 394 462L414 464Q419 452 415 439Z" fill="#d9a47f" stroke="#343744" stroke-width="1.7"/></g></g></g>
  <g id="anime-03-layer-palms" data-concept="palms"><g transform="translate(-6.000000000000005 0) scale(1.02 1)"><g stroke-linecap="round" stroke-linejoin="round"><path d="M187 448Q194 444 201 449L201 463 187 462Z" fill="#d9a47f" stroke="none" stroke-width="2"/><path d="M188 454Q194 451 199 456M190 460L196 458" fill="none" stroke="#bd825f" stroke-width="1.2"/><path d="M398 445Q405 441 412 446L412 460 398 459Z" fill="#d9a47f" stroke="none" stroke-width="2"/><path d="M399 451Q405 448 410 453M401 457L407 455" fill="none" stroke="#bd825f" stroke-width="1.2"/></g></g></g>
  <g id="anime-03-layer-fingers" data-concept="fingers"><g transform="translate(-6.000000000000005 0) scale(1.02 1)"><g stroke-linecap="round" stroke-linejoin="round"><path d="M183.5 462L184 477Q187 482 189 477L189 462Z" fill="#d9a47f" stroke="#343744" stroke-width="1.7"/><path d="M186 468L188 468" fill="none" stroke="#bd825f" stroke-width="1.2"/><path d="M189.5 462L190 481Q193 486 195 481L195 462Z" fill="#d9a47f" stroke="#343744" stroke-width="1.7"/><path d="M192 468L194 468" fill="none" stroke="#bd825f" stroke-width="1.2"/><path d="M195.5 462L196 479Q199 484 201 479L201 462Z" fill="#d9a47f" stroke="#343744" stroke-width="1.7"/><path d="M198 468L200 468" fill="none" stroke="#bd825f" stroke-width="1.2"/><path d="M201.5 462L202 474Q205 479 207 474L207 462Z" fill="#d9a47f" stroke="#343744" stroke-width="1.7"/><path d="M204 468L206 468" fill="none" stroke="#bd825f" stroke-width="1.2"/><path d="M203 448Q211 453 212 465Q209 471 206 464L200 457Z" fill="#d9a47f" stroke="#343744" stroke-width="1.7"/><path d="M394.5 459L395 474Q398 479 400 474L400 459Z" fill="#d9a47f" stroke="#343744" stroke-width="1.7"/><path d="M397 465L399 465" fill="none" stroke="#bd825f" stroke-width="1.2"/><path d="M400.5 459L401 478Q404 483 406 478L406 459Z" fill="#d9a47f" stroke="#343744" stroke-width="1.7"/><path d="M403 465L405 465" fill="none" stroke="#bd825f" stroke-width="1.2"/><path d="M406.5 459L407 476Q410 481 412 476L412 459Z" fill="#d9a47f" stroke="#343744" stroke-width="1.7"/><path d="M409 465L411 465" fill="none" stroke="#bd825f" stroke-width="1.2"/><path d="M412.5 459L413 471Q416 476 418 471L418 459Z" fill="#d9a47f" stroke="#343744" stroke-width="1.7"/><path d="M415 465L417 465" fill="none" stroke="#bd825f" stroke-width="1.2"/><path d="M396 445Q388 450 387 462Q390 468 393 461L399 454Z" fill="#d9a47f" stroke="#343744" stroke-width="1.7"/></g></g></g>
</svg>
