<svg xmlns="http://www.w3.org/2000/svg" viewBox="0 0 600 800" role="img" aria-labelledby="anime-07-title anime-07-description">
  <title id="anime-07-title">Tavi — original friendly anime character</title>
  <desc id="anime-07-description" xml:lang="he">צפר חורפי עם שיער כסוף, מעיל כחול ארוך ומגפיים שרוכים. דמות אנימה מקורית באורך מלא.</desc>
  <defs><linearGradient id="anime-07-hair" x1="0" y1="0" x2=".8" y2="1"><stop stop-color="#eef0e7"/><stop offset=".38" stop-color="#b5bfc4"/><stop offset="1" stop-color="#b5bfc4"/></linearGradient><linearGradient id="anime-07-iris" x1="0" y1="0" x2="0" y2="1"><stop stop-color="#343744"/><stop offset=".55" stop-color="#496d8c"/><stop offset="1" stop-color="#d6a55b"/></linearGradient></defs>
  <g id="anime-07-layer-legs" data-concept="legs"><g transform="translate(0 -8.000000000000007) scale(1 1.02)"><g stroke-linecap="round" stroke-linejoin="round"><path d="M253 431Q270 423 284 440L285 503 276 563 270 669 247 669 244 605 246 548 241 484ZM310 435Q327 424 344 437L356 492 353 549 363 665 339 670 321 610 317 554 303 492Z" fill="#efc3a0" stroke="#343744" stroke-width="1.7"/><path d="M255 550L257 626M339 553L347 624" fill="none" stroke="#d5a180" stroke-width="1.2"/></g></g></g>
  <g id="anime-07-layer-thighs" data-concept="thighs"><g transform="translate(0 -8.000000000000007) scale(1 1.02)"><g stroke-linecap="round" stroke-linejoin="round"><path d="M253 432Q269 425 283 441L283 495 277 524Q261 532 246 522L242 483ZM310 438Q327 426 343 439L354 492 349 519Q334 532 319 522L306 486Z" fill="#efc3a0" stroke="none" stroke-width="2"/><path d="M250 486L252 507M340 485L343 506" fill="none" stroke="#d5a180" stroke-width="1.2"/></g></g></g>
  <g id="anime-07-layer-knees" data-concept="knees"><g transform="translate(0 -8.000000000000007) scale(1 1.02)"><g stroke-linecap="round" stroke-linejoin="round"><path d="M249 535Q260 530 274 535L274 554Q262 561 249 554ZM325 534Q338 529 350 535L351 553Q339 560 327 554Z" fill="#efc3a0" stroke="none" stroke-width="2"/><path d="M254 546Q261 542 268 546M330 545Q338 541 345 545" fill="none" stroke="#d5a180" stroke-width="1.2"/></g></g></g>
  <g id="anime-07-layer-ankles" data-concept="ankles"><g transform="translate(0 -8.000000000000007) scale(1 1.02)"><g stroke-linecap="round" stroke-linejoin="round"><path d="M248 655L270 655 271 692 246 693ZM339 654L361 653 368 691 342 694Z" fill="#efc3a0" stroke="#343744" stroke-width="1.7"/></g></g></g>
  <g id="anime-07-layer-feet" data-concept="feet"><g transform="translate(0 -8.000000000000007) scale(1 1.02)"><g stroke-linecap="round" stroke-linejoin="round"><path d="M247 683L270 683 274 713Q262 725 238 725H212Q202 721 211 712L233 701ZM342 684L363 683 379 700 399 713Q408 723 394 728L347 724 337 710Z" fill="#efc3a0" stroke="#343744" stroke-width="1.7"/><path d="M218 714L219 720M225 711L227 720M390 713L387 720M382 710L379 719" fill="none" stroke="#d5a180" stroke-width="1.2"/></g></g></g>
  <g id="anime-07-layer-heels" data-concept="heels"><g transform="translate(0 -8.000000000000007) scale(1 1.02)"><g stroke-linecap="round" stroke-linejoin="round"><path d="M259 701Q270 697 272 709L270 720 258 721Q252 711 259 701ZM343 702Q353 697 357 709L354 722 341 720Q337 711 343 702Z" fill="#efc3a0" stroke="none" stroke-width="2"/><path d="M259 718L268 718M343 718L353 720" fill="none" stroke="#d5a180" stroke-width="1.2"/></g></g></g>
  <g id="anime-07-layer-chest" data-concept="chest"><g transform="translate(0 -8.000000000000007) scale(1 1.02)"><g stroke-linecap="round" stroke-linejoin="round"><path d="M263 262Q300 250 337 263L347 311 333 367Q300 377 266 367L251 313Z" fill="#efc3a0" stroke="#343744" stroke-width="1.7"/><path d="M325 265L337 272 344 310 331 362 319 366Q335 308 325 265Z" fill="#d5a180" stroke="none" stroke-width="2"/></g></g></g>
  <g id="anime-07-layer-waist" data-concept="waist"><g transform="translate(0 -8.000000000000007) scale(1 1.02)"><g stroke-linecap="round" stroke-linejoin="round"><path d="M266 358Q300 369 334 358L344 429Q300 450 247 430Z" fill="#efc3a0" stroke="#343744" stroke-width="1.7"/><path d="M249 417Q295 428 342 416L345 448 305 466 294 449 249 454Z" fill="#c4bac0" stroke="#343744" stroke-width="1.5"/></g></g></g>
  <g id="anime-07-layer-shoulders" data-concept="shoulders"><g transform="translate(0 -8.000000000000007) scale(1 1.02)"><g stroke-linecap="round" stroke-linejoin="round"><path d="M262 260Q240 256 228 276L226 293 248 302 272 276ZM335 262Q356 258 370 278L375 294 353 304 326 277Z" fill="#efc3a0" stroke="#343744" stroke-width="1.7"/></g></g></g>
  <g id="anime-07-layer-arms" data-concept="arms"><g transform="translate(0 -8.000000000000007) scale(1 1.02)"><g stroke-linecap="round" stroke-linejoin="round"><path d="M228 280Q196 310 199 351L185 430 205 432 227 355Q230 311 256 282Z" fill="#efc3a0" stroke="#343744" stroke-width="1.7"/><path d="M206 374L191 417" fill="none" stroke="#d5a180" stroke-width="1.2"/><path d="M345 280Q367 310 370 351L390 427 410 429 398 355Q401 311 373 282Z" fill="#efc3a0" stroke="#343744" stroke-width="1.7"/><path d="M391 374L404 414" fill="none" stroke="#d5a180" stroke-width="1.2"/></g></g></g>
  <g id="anime-07-layer-elbows" data-concept="elbows"><g transform="translate(0 -8.000000000000007) scale(1 1.02)"><g stroke-linecap="round" stroke-linejoin="round"><path d="M202 341Q213 337 224 342L223 359Q213 365 203 360Z" fill="#efc3a0" stroke="none" stroke-width="2"/><path d="M208 351Q213 355 218 351" fill="none" stroke="#d5a180" stroke-width="1.2"/><path d="M373 341Q384 337 395 342L394 359Q384 365 374 360Z" fill="#efc3a0" stroke="none" stroke-width="2"/><path d="M379 351Q384 355 389 351" fill="none" stroke="#d5a180" stroke-width="1.2"/></g></g></g>
  <g id="anime-07-layer-wrists" data-concept="wrists"><g transform="translate(0 -8.000000000000007) scale(1 1.02)"><g stroke-linecap="round" stroke-linejoin="round"><path d="M185 426L205 426 205 447 185 447Z" fill="#efc3a0" stroke="#343744" stroke-width="1.7"/><path d="M390 423L410 423 410 444 390 444Z" fill="#efc3a0" stroke="#343744" stroke-width="1.7"/></g></g></g>
  <g id="anime-07-layer-neck" data-concept="neck"><g transform="translate(0 -8.000000000000007) scale(1 1.02)"><g stroke-linecap="round" stroke-linejoin="round"><path d="M283 216L281 258Q300 276 319 257L317 215Z" fill="#efc3a0" stroke="#343744" stroke-width="1.7"/><path d="M284 221Q299 233 316 220L317 239Q298 250 283 237Z" fill="#d5a180" stroke="none" stroke-width="2"/><path d="M285 251Q298 260 311 252" fill="none" stroke="#d5a180" stroke-width="1.2"/></g></g></g>
  <g id="anime-07-layer-head" data-concept="head"><g transform="translate(0 -8.000000000000007) scale(1 1.02)"><g stroke-linecap="round" stroke-linejoin="round"><path d="M254 154Q251 111 299 106Q347 108 347 152L345 185Q338 213 307 230Q300 234 291 230Q261 215 256 188Z" fill="#efc3a0" stroke="#343744" stroke-width="1.7"/><path d="M337 147L346 153 344 187Q335 214 307 230L320 213 333 188Z" fill="#d5a180" stroke="none" stroke-width="2"/></g></g></g>
  <g id="anime-07-layer-forehead" data-concept="forehead"><g transform="translate(0 -8.000000000000007) scale(1 1.02)"><g stroke-linecap="round" stroke-linejoin="round"><path d="M270 145Q300 132 330 145L329 164Q300 169 271 164Z" fill="#efc3a0" stroke="none" stroke-width="2"/><path d="M283 145Q297 140 308 143L305 147 284 150Z" fill="#f3ead8" stroke="none" stroke-width="0"/></g></g></g>
  <g id="anime-07-layer-cheeks" data-concept="cheeks"><g transform="translate(0 -8.000000000000007) scale(1 1.02)"><g stroke-linecap="round" stroke-linejoin="round"><ellipse cx="273" cy="198" rx="9" ry="4" fill="#dfa28d" stroke="none" stroke-width="1"/><ellipse cx="326" cy="198" rx="9" ry="4" fill="#dfa28d" stroke="none" stroke-width="1"/><path d="M269 197l2 2m3-3 2 2m45-1 2 2m3-3 2 2" fill="none" stroke="#d5a180" stroke-width="0.7"/></g></g></g>
  <g id="anime-07-layer-jaw" data-concept="jaw"><g transform="translate(0 -8.000000000000007) scale(1 1.02)"><g stroke-linecap="round" stroke-linejoin="round"><path d="M257 193Q265 211 287 224L282 224Q264 216 258 205ZM342 194Q335 212 313 226L317 225Q337 215 342 203Z" fill="#efc3a0" stroke="none" stroke-width="2"/><path d="M263 205Q270 216 282 221M318 220Q331 211 337 202" fill="none" stroke="#d5a180" stroke-width="1.2"/></g></g></g>
  <g id="anime-07-layer-chin" data-concept="chin"><g transform="translate(0 -8.000000000000007) scale(1 1.02)"><g stroke-linecap="round" stroke-linejoin="round"><path d="M291 219Q300 222 309 219L310 226Q300 234 289 226Z" fill="#efc3a0" stroke="none" stroke-width="2"/><path d="M295 226Q300 228 305 225" fill="none" stroke="#d5a180" stroke-width="1.2"/></g></g></g>
  <g id="anime-07-layer-ears" data-concept="ears"><g transform="translate(0 -8.000000000000007) scale(1 1.02)"><g stroke-linecap="round" stroke-linejoin="round"><path d="M256 170Q242 161 245 180Q247 192 258 193ZM344 171Q359 161 355 181Q352 193 342 193Z" fill="#efc3a0" stroke="#343744" stroke-width="1.7"/><path d="M249 175Q255 172 254 184M350 174Q345 174 347 185" fill="none" stroke="#d5a180" stroke-width="1.2"/></g></g></g>
  <g id="anime-07-layer-eyes" data-concept="eyes"><g transform="translate(0 -8.000000000000007) scale(1 1.02)"><g stroke-linecap="round" stroke-linejoin="round"><path d="M266 169Q277 164 288 169M311 169Q322 164 332 169" fill="none" stroke="#b5bfc4" stroke-width="2.1"/><path d="M265 180Q276 171 288 180Q280 190 267 185ZM311 180Q321 171 333 180L331 185Q319 190 311 180Z" fill="#fffaf2" stroke="#d5a180" stroke-width="0.8"/><ellipse cx="278" cy="180.5" rx="5.3" ry="7" fill="url(#anime-07-iris)" stroke="#343744" stroke-width="0.8"/><ellipse cx="321" cy="180.5" rx="5.3" ry="7" fill="url(#anime-07-iris)" stroke="#343744" stroke-width="0.8"/><ellipse cx="279" cy="181" rx="2.1" ry="4.6" fill="#343744" stroke="none" stroke-width="1"/><ellipse cx="320" cy="181" rx="2.1" ry="4.6" fill="#343744" stroke="none" stroke-width="1"/><path d="M263 178l2 2Q276 171 288 180M311 180Q321 171 333 180l2-3" fill="none" stroke="#343744" stroke-width="2.1"/><ellipse cx="276.5" cy="178" rx="1.7" ry="2.1" fill="#fff" stroke="none" stroke-width="1"/><ellipse cx="319.5" cy="178" rx="1.7" ry="2.1" fill="#fff" stroke="none" stroke-width="1"/><ellipse cx="280" cy="184" rx="0.9" ry="1" fill="#fff8da" stroke="none" stroke-width="1"/><ellipse cx="323" cy="184" rx="0.9" ry="1" fill="#fff8da" stroke="none" stroke-width="1"/></g></g></g>
  <g id="anime-07-layer-nose" data-concept="nose"><g transform="translate(0 -8.000000000000007) scale(1 1.02)"><g stroke-linecap="round" stroke-linejoin="round"><path d="M300 183L296 197 301 199M303 197l2-1" fill="none" stroke="#d5a180" stroke-width="1.2"/><path d="M300 187l-1 6" fill="none" stroke="#f3ead8" stroke-width="1.2"/></g></g></g>
  <g id="anime-07-layer-mouth" data-concept="mouth"><g transform="translate(0 -8.000000000000007) scale(1 1.02)"><g stroke-linecap="round" stroke-linejoin="round"><path d="M289 209Q300 215 312 208Q306 218 299 217Q293 216 289 209Z" fill="#995e5d" stroke="#865458" stroke-width="1"/><path d="M292 211Q301 214 308 210L306 213Q300 216 295 213Z" fill="#fff6e4" stroke="none" stroke-width="2"/></g></g></g>
  <g id="anime-07-layer-lips" data-concept="lips"><g transform="translate(0 -8.000000000000007) scale(1 1.02)"><g stroke-linecap="round" stroke-linejoin="round"><path d="M289 209Q300 215 312 208M297 219Q302 220 305 218" fill="none" stroke="#b37772" stroke-width="1.3"/></g></g></g>
  <g id="anime-07-layer-trousers" data-concept="trousers"><g transform="translate(0 -8.000000000000007) scale(1 1.02)"><g stroke-linecap="round" stroke-linejoin="round"><path d="M246 408Q298 398 346 410L351 479 359 664Q347 675 330 667L307 540 300 477 287 538 278 669Q257 678 238 667L242 535 237 478Z" fill="#776b65" stroke="#343744" stroke-width="2"/><path d="M245 430L259 441 254 526 254 659 239 665 243 535 237 478ZM328 420L346 418 350 480 359 664 347 670 334 526Z" fill="#554d4d" stroke="none" stroke-width="2"/><path d="M266 469L258 521M330 477L337 516M247 545l20-5-7 13m73-15 15 8-12 4M247 644l22-4m64 1 18 5" fill="none" stroke="#f3ead8" stroke-width="1.15"/><path d="M282 416L284 450 297 457M254 418l-5 22m79-22 6 22" fill="none" stroke="#554d4d" stroke-width="1.4"/></g></g></g>
  <g id="anime-07-layer-boots" data-concept="boots"><g transform="translate(0 -8.000000000000007) scale(1 1.02)"><g stroke-linecap="round" stroke-linejoin="round"><path d="M236 607Q258 614 279 607L275 692 240 697Z" fill="#345568" stroke="#343744" stroke-width="2"/><path d="M264 616L276 613 275 690 264 694Z" fill="#283f49" stroke="none" stroke-width="2"/><path d="M235 607Q258 614 280 607L280 621Q258 627 235 620Z" fill="#4f7988" stroke="#343744" stroke-width="2"/><path d="M243 633l26 1m-26 13 25 1m-25 14 24 1m-24 14 23 1" fill="none" stroke="#f3ead8" stroke-width="1.7"/><path d="M247 628l20 50m-20 0 20-50" fill="none" stroke="#d6a55b" stroke-width="1.5"/><path d="M245 684L273 684 276 713Q269 728 241 729H210Q200 724 207 712L230 701Z" fill="#68554a" stroke="#343744" stroke-width="2"/><path d="M245 694L255 695 248 715 209 721 206 717 230 702Z" fill="#4f7988" stroke="none" stroke-width="2"/><path d="M206 719Q239 726 275 713L274 725Q244 737 207 729Z" fill="#f3ead8" stroke="#343744" stroke-width="1.4"/><path d="M214 727Q242 730 265 722" fill="none" stroke="#345568" stroke-width="1"/><path d="M246 686L260 688 251 711 232 714Z" fill="#345568" stroke="#343744" stroke-width="1"/><path d="M244 694l13 2m-17 4 14 1m-18 5 14 1" fill="none" stroke="#f3ead8" stroke-width="1.9"/><path d="M252 687q-16-14-16-6t16 6q15-16 16-7t-16 7" fill="none" stroke="#f3ead8" stroke-width="1.5"/><path d="M329 607Q351 614 372 607L368 692 333 697Z" fill="#345568" stroke="#343744" stroke-width="2"/><path d="M357 616L369 613 368 690 357 694Z" fill="#283f49" stroke="none" stroke-width="2"/><path d="M328 607Q351 614 373 607L373 621Q351 627 328 620Z" fill="#4f7988" stroke="#343744" stroke-width="2"/><path d="M336 633l26 1m-26 13 25 1m-25 14 24 1m-24 14 23 1" fill="none" stroke="#f3ead8" stroke-width="1.7"/><path d="M340 628l20 50m-20 0 20-50" fill="none" stroke="#d6a55b" stroke-width="1.5"/><path d="M336 684L364 683 378 699 400 707Q411 717 404 728Q378 736 340 726L335 713Z" fill="#68554a" stroke="#343744" stroke-width="2"/><path d="M342 693L351 690 356 716 401 719 403 728 343 723Z" fill="#4f7988" stroke="none" stroke-width="2"/><path d="M339 716Q370 729 407 719L405 730Q374 740 340 728Z" fill="#f3ead8" stroke="#343744" stroke-width="1.4"/><path d="M345 725Q374 734 399 726" fill="none" stroke="#345568" stroke-width="1"/><path d="M348 685L362 687 380 712 358 715Z" fill="#345568" stroke="#343744" stroke-width="1"/><path d="M352 693l14 2m-10 4 15 2m-11 4 15 2" fill="none" stroke="#f3ead8" stroke-width="1.9"/><path d="M359 689q-18-18-16-5t16 5q16-14 17-6t-17 6" fill="none" stroke="#f3ead8" stroke-width="1.5"/></g></g></g>
  <g id="anime-07-layer-sweater" data-concept="sweater"><g transform="translate(0 -8.000000000000007) scale(1 1.02)"><g stroke-linecap="round" stroke-linejoin="round"><path d="M270 256L286 249 316 249 333 258 340 425 252 425Z" fill="#f3ead8" stroke="#343744" stroke-width="2"/><path d="M281 244Q300 251 319 244L320 270Q300 280 280 269Z" fill="#d7c9af" stroke="#343744" stroke-width="2"/><path d="M286 250v19m7-17v20m7-19v20m7-20v19m7-21v19M284 290l30 0m-33 20h35M280 339l39 0M280 382h42" fill="none" stroke="#aa9d89" stroke-width="1"/></g></g></g>
  <g id="anime-07-layer-coat" data-concept="coat"><g transform="translate(0 -8.000000000000007) scale(1 1.02)"><g stroke-linecap="round" stroke-linejoin="round"><path d="M228 262Q216 271 219 289Q190 319 193 354L179 427Q195 436 211 427L233 354Q235 317 264 288Q263 270 254 262Z" fill="#4f7988" stroke="#343744" stroke-width="2"/><path d="M252 280L264 288Q235 317 233 354L211 427 201 429 218 351Z" fill="#345568" stroke="none" stroke-width="2"/><path d="M231 294L237 311M185 413l12 5m-9-13 13 4" fill="none" stroke="#345568" stroke-width="1.2"/><path d="M179 419Q195 424 211 419L211 429Q195 436 179 429Z" fill="#f3ead8" stroke="#343744" stroke-width="1.5"/><path d="M183 424Q195 429 207 424" fill="none" stroke="#f3ead8" stroke-width="1"/><path d="M345 262Q333 271 336 289Q361 319 364 354L384 424Q400 433 416 424L404 354Q406 317 381 288Q380 270 371 262Z" fill="#4f7988" stroke="#343744" stroke-width="2"/><path d="M369 280L381 288Q406 317 404 354L416 424 406 426 389 351Z" fill="#345568" stroke="none" stroke-width="2"/><path d="M348 294L354 311M390 410l12 5m-9-13 13 4" fill="none" stroke="#345568" stroke-width="1.2"/><path d="M384 416Q400 421 416 416L416 426Q400 433 384 426Z" fill="#f3ead8" stroke="#343744" stroke-width="1.5"/><path d="M388 421Q400 426 412 421" fill="none" stroke="#f3ead8" stroke-width="1"/><path d="M269 253L284 267 289 379 287 486 276 550 229 539 245 414 245 304ZM319 265L333 252 353 293 351 414 378 540 330 550 313 485 309 379Z" fill="#4f7988" stroke="#343744" stroke-width="2"/><path d="M251 298L263 311 260 418 245 537 230 538 245 414ZM334 303L351 293 351 414 378 540 360 544 339 430Z" fill="#345568" stroke="none" stroke-width="2"/><path d="M268 248L282 253 296 282 276 311 257 276ZM321 250L333 246 345 274 322 308 305 282Z" fill="#f3ead8" stroke="#343744" stroke-width="2"/><path d="M276 318L275 524M322 318L334 523M237 528l38 10m59 0 33-8" fill="none" stroke="#96b2b6" stroke-width="1.5"/><path d="M252 408H278L276 436Q265 442 254 436Z" fill="#4f7988" stroke="#345568" stroke-width="1.3"/><path d="M251 408H279L275 418 265 421 254 418Z" fill="#f3ead8" stroke="#345568" stroke-width="1.2"/><ellipse cx="265" cy="415" rx="1.8" ry="1.8" fill="#d6a55b" stroke="#345568" stroke-width="0.6"/><path d="M323 408H349L347 436Q336 442 325 436Z" fill="#4f7988" stroke="#345568" stroke-width="1.3"/><path d="M322 408H350L346 418 336 421 325 418Z" fill="#f3ead8" stroke="#345568" stroke-width="1.2"/><ellipse cx="336" cy="415" rx="1.8" ry="1.8" fill="#d6a55b" stroke="#345568" stroke-width="0.6"/><path d="M279 326Q299 335 320 326" fill="none" stroke="#345568" stroke-width="3"/><rect x="286" y="323" width="22" height="6" rx="3" fill="#d6a55b" stroke="#345568" stroke-width="1"/><path d="M299 324v4" fill="none" stroke="#f3ead8" stroke-width="1"/><path d="M279 360Q299 369 320 360" fill="none" stroke="#345568" stroke-width="3"/><rect x="286" y="357" width="22" height="6" rx="3" fill="#d6a55b" stroke="#345568" stroke-width="1"/><path d="M299 358v4" fill="none" stroke="#f3ead8" stroke-width="1"/><path d="M279 394Q299 403 320 394" fill="none" stroke="#345568" stroke-width="3"/><rect x="286" y="391" width="22" height="6" rx="3" fill="#d6a55b" stroke="#345568" stroke-width="1"/><path d="M299 392v4" fill="none" stroke="#f3ead8" stroke-width="1"/></g></g></g>
  <g id="anime-07-layer-hair" data-concept="hair"><g transform="translate(0 -8.000000000000007) scale(1 1.02)"><g stroke-linecap="round" stroke-linejoin="round"><path d="M346 156Q375 181 359 214L351 254 364 270 350 298 344 282 335 290Q323 259 334 232L342 202 335 178Z" fill="url(#anime-07-hair)" stroke="#343744" stroke-width="2"/><path d="M248 168Q233 141 249 116Q255 91 287 91Q320 81 343 102L358 131 350 161 340 181 333 146 323 133Q301 155 279 161L291 139 269 153 260 175 256 184Z" fill="url(#anime-07-hair)" stroke="#343744" stroke-width="2"/><path d="M251 127Q266 96 301 98L285 111 269 130 255 148ZM306 98Q329 94 344 123L324 112Z" fill="#eef0e7" stroke="none" stroke-width="2"/><path d="M256 135q8-20 26-28m-8 35 24-25m-6 30 22-27m11 0 13 22M348 187q13 18 0 39m-5 16-2 24m9-33-3 25m-4 10 4 13" fill="none" stroke="#eef0e7" stroke-width="1.3"/><path d="M259 164l10-21m68 3 4 20" fill="none" stroke="#7b8794" stroke-width="1.4"/><path d="M339 202L355 206 353 214 337 210Z" fill="#d6a55b" stroke="#343744" stroke-width="1.2"/></g></g></g>
  <g id="anime-07-layer-hands" data-concept="hands"><g transform="translate(0 -8.000000000000007) scale(1 1.02)"><g stroke-linecap="round" stroke-linejoin="round"><path d="M185 442Q180 453 184 465L204 467Q209 455 205 442Z" fill="#efc3a0" stroke="#343744" stroke-width="1.7"/><path d="M390 439Q385 450 389 462L409 464Q414 452 410 439Z" fill="#efc3a0" stroke="#343744" stroke-width="1.7"/></g></g></g>
  <g id="anime-07-layer-palms" data-concept="palms"><g transform="translate(0 -8.000000000000007) scale(1 1.02)"><g stroke-linecap="round" stroke-linejoin="round"><path d="M188 448Q195 444 202 449L202 463 188 462Z" fill="#efc3a0" stroke="none" stroke-width="2"/><path d="M189 454Q195 451 200 456M191 460L197 458" fill="none" stroke="#d5a180" stroke-width="1.2"/><path d="M393 445Q400 441 407 446L407 460 393 459Z" fill="#efc3a0" stroke="none" stroke-width="2"/><path d="M394 451Q400 448 405 453M396 457L402 455" fill="none" stroke="#d5a180" stroke-width="1.2"/></g></g></g>
  <g id="anime-07-layer-fingers" data-concept="fingers"><g transform="translate(0 -8.000000000000007) scale(1 1.02)"><g stroke-linecap="round" stroke-linejoin="round"><path d="M184.5 462L185 477Q188 482 190 477L190 462Z" fill="#efc3a0" stroke="#343744" stroke-width="1.7"/><path d="M187 468L189 468" fill="none" stroke="#d5a180" stroke-width="1.2"/><path d="M190.5 462L191 481Q194 486 196 481L196 462Z" fill="#efc3a0" stroke="#343744" stroke-width="1.7"/><path d="M193 468L195 468" fill="none" stroke="#d5a180" stroke-width="1.2"/><path d="M196.5 462L197 479Q200 484 202 479L202 462Z" fill="#efc3a0" stroke="#343744" stroke-width="1.7"/><path d="M199 468L201 468" fill="none" stroke="#d5a180" stroke-width="1.2"/><path d="M202.5 462L203 474Q206 479 208 474L208 462Z" fill="#efc3a0" stroke="#343744" stroke-width="1.7"/><path d="M205 468L207 468" fill="none" stroke="#d5a180" stroke-width="1.2"/><path d="M204 448Q212 453 213 465Q210 471 207 464L201 457Z" fill="#efc3a0" stroke="#343744" stroke-width="1.7"/><path d="M389.5 459L390 474Q393 479 395 474L395 459Z" fill="#efc3a0" stroke="#343744" stroke-width="1.7"/><path d="M392 465L394 465" fill="none" stroke="#d5a180" stroke-width="1.2"/><path d="M395.5 459L396 478Q399 483 401 478L401 459Z" fill="#efc3a0" stroke="#343744" stroke-width="1.7"/><path d="M398 465L400 465" fill="none" stroke="#d5a180" stroke-width="1.2"/><path d="M401.5 459L402 476Q405 481 407 476L407 459Z" fill="#efc3a0" stroke="#343744" stroke-width="1.7"/><path d="M404 465L406 465" fill="none" stroke="#d5a180" stroke-width="1.2"/><path d="M407.5 459L408 471Q411 476 413 471L413 459Z" fill="#efc3a0" stroke="#343744" stroke-width="1.7"/><path d="M410 465L412 465" fill="none" stroke="#d5a180" stroke-width="1.2"/><path d="M391 445Q383 450 382 462Q385 468 388 461L394 454Z" fill="#efc3a0" stroke="#343744" stroke-width="1.7"/></g></g></g>
</svg>
