<svg xmlns="http://www.w3.org/2000/svg" viewBox="0 0 600 800" role="img" aria-labelledby="manga-09-title" aria-describedby="manga-09-desc">
  <title id="manga-09-title">Noa — original friendly monochrome manga character</title>
  <desc id="manga-09-desc" xml:lang="he">נועה עם שיער גלי ארוך, חולצה בעלת צווארון, אפוד סרוג וחצאית קפלים, באיור שחור ולבן.</desc>
  <defs><linearGradient id="manga-09-paint-skin" x1="0%" y1="0%" x2="100%" y2="80%"><stop offset="0" stop-color="#eeeeee"/><stop offset="0.55" stop-color="#eeeeee"/><stop offset="1" stop-color="#bcbcbc"/></linearGradient><linearGradient id="manga-09-paint-hair" x1="0%" y1="0%" x2="25%" y2="100%"><stop offset="0" stop-color="#ababab"/><stop offset="0.14" stop-color="#ababab"/><stop offset="1" stop-color="#393939"/></linearGradient><linearGradient id="manga-09-paint-cloth" x1="0%" y1="0%" x2="100%" y2="80%"><stop offset="0" stop-color="#fafafa"/><stop offset="0.55" stop-color="#fafafa"/><stop offset="1" stop-color="#c7c7c7"/></linearGradient><linearGradient id="manga-09-paint-bottom" gradientUnits="userSpaceOnUse" x1="240" y1="330" x2="375" y2="700"><stop offset="0" stop-color="#777777"/><stop offset="0.55" stop-color="#777777"/><stop offset="1" stop-color="#424242"/></linearGradient><linearGradient id="manga-09-paint-accent" x1="0%" y1="0%" x2="100%" y2="80%"><stop offset="0" stop-color="#b0b0b0"/><stop offset="0.55" stop-color="#b0b0b0"/><stop offset="1" stop-color="#424242"/></linearGradient><linearGradient id="manga-09-paint-cargo" x1="0%" y1="0%" x2="100%" y2="80%"><stop offset="0" stop-color="#777777"/><stop offset="0.55" stop-color="#777777"/><stop offset="1" stop-color="#424242"/></linearGradient>
      <pattern id="manga-09-paint-plaid" width="28" height="28" patternUnits="userSpaceOnUse"><rect width="28" height="28" fill="#777777"/><path d="M0 7L28 7M7 0L7 28" stroke="#c7c7c7" stroke-width="5"/><path d="M0 19L28 19M19 0L19 28" stroke="#fafafa" stroke-width=".65"/><path d="M0 22L28 22M22 0L22 28" stroke="#424242" stroke-width="1.2"/></pattern>
      <pattern id="manga-09-paint-knit" width="7" height="9" patternUnits="userSpaceOnUse"><rect width="7" height="9" fill="#fafafa"/><path d="M1 1Q4 2 3.5 7Q4 3 6 1" fill="none" stroke="#c7c7c7" stroke-width=".55"/></pattern>
      <pattern id="manga-09-paint-weave" width="6" height="6" patternUnits="userSpaceOnUse"><rect width="6" height="6" fill="#b0b0b0"/><path d="M0 0L6 6M0 6L6 0" stroke="#424242" stroke-width=".45"/></pattern></defs>
  <g id="manga-09-legs"><g stroke-linecap="round" stroke-linejoin="round"><path d="M294.966 419.22Q290.966 491.22 278.986 562.728Q275.483 633.689 266.49 704.419L249.51 703.581Q247.517 632.311 251.014 561.272Q247.034 488.78 251.034 416.78Q274.464 391.641 294.966 419.22Z" fill="url(#manga-09-paint-skin)" stroke="#343434" stroke-width="1.2"/><path d="M342.991 417.385Q344.991 488.885 338.958 560.02Q346.913 630.943 349.447 703.055L332.553 704.945Q319.087 634.057 311.042 561.98Q301.009 490.115 299.009 418.615Q320.262 391.61 342.991 417.385Z" fill="url(#manga-09-paint-skin)" stroke="#343434" stroke-width="1.2"/></g></g>
  <g id="manga-09-thighs"><g stroke-linecap="round" stroke-linejoin="round"><path d="M257.8 444.6Q265.8 452.6 261.8 487.6L258.8 505.6Q253.8 481.6 257.8 444.6Z" fill="#bcbcbc" stroke="none" stroke-width="1.2"/><path d="M310.6 444.2Q318.6 452.2 314.6 487.2L311.6 505.2Q306.6 481.2 310.6 444.2Z" fill="#bcbcbc" stroke="none" stroke-width="1.2"/></g></g>
  <g id="manga-09-knees"><g stroke-linecap="round" stroke-linejoin="round"><path d="M257 559Q265 563 273 559M260 567Q265 570 270 567" fill="none" stroke="#bcbcbc" stroke-width="0.8"/><path d="M317 558Q325 562 333 558M320 566Q325 569 330 566" fill="none" stroke="#bcbcbc" stroke-width="0.8"/></g></g>
  <g id="manga-09-ankles"><g stroke-linecap="round" stroke-linejoin="round"><path d="M250 696L266 696 267 716 249 716Z" fill="url(#manga-09-paint-skin)" stroke="#343434" stroke-width="0.8"/><path d="M333 696L349 696 350 716 332 716Z" fill="url(#manga-09-paint-skin)" stroke="#343434" stroke-width="0.8"/></g></g>
  <g id="manga-09-feet"><g stroke-linecap="round" stroke-linejoin="round"><path d="M266 707L249 707 247 721Q235 724 229 734Q227 740 237 741L269 740Q274 736 271 727Z" fill="url(#manga-09-paint-skin)" stroke="#343434" stroke-width="1"/><path d="M333 707L350 707 352 721Q364 724 370 734Q372 740 362 741L330 740Q325 736 328 727Z" fill="url(#manga-09-paint-skin)" stroke="#343434" stroke-width="1"/></g></g>
  <g id="manga-09-heels"><g stroke-linecap="round" stroke-linejoin="round"><path d="M270 727Q274 736 268 739L263 739 264 730Z" fill="#bcbcbc" stroke="none" stroke-width="1.2"/><path d="M329 727Q325 736 331 739L336 739 335 730Z" fill="#bcbcbc" stroke="none" stroke-width="1.2"/></g></g>
  <g id="manga-09-arms"><g stroke-linecap="round" stroke-linejoin="round"><path d="M257.058 253.463Q243.558 292.963 226.923 331.433Q213.906 368.481 197.793 404.387L184.207 399.613Q194.094 361.519 207.077 324.567Q217.442 284.037 230.942 244.537Q249.356 233.33 257.058 253.463Z" fill="url(#manga-09-paint-skin)" stroke="#343434" stroke-width="1.2"/><path d="M364.955 244.244Q379.455 283.744 391.132 326.845Q385.917 372.817 377.143 415.903L362.857 414.097Q365.083 370.183 370.868 329.155Q353.545 293.256 339.045 253.756Q346.293 233.454 364.955 244.244Z" fill="url(#manga-09-paint-skin)" stroke="#343434" stroke-width="1.2"/></g></g>
  <g id="manga-09-elbows"><g stroke-linecap="round" stroke-linejoin="round"><path d="M210 324Q217 322 224 325M212 331Q217 333 222 330" fill="none" stroke="#bcbcbc" stroke-width="0.8"/><path d="M374 324Q381 322 388 325M376 331Q381 333 386 330" fill="none" stroke="#bcbcbc" stroke-width="0.8"/></g></g>
  <g id="manga-09-wrists"><g stroke-linecap="round" stroke-linejoin="round"><path d="M185.788 395.717L198.996 400.358 195.377 410.66Q187.937 410.718 182.168 406.02Z" fill="url(#manga-09-paint-skin)" stroke="#343434" stroke-width="0.9"/><path d="M377.472 411.711L363.582 409.955 362.212 420.789Q368.841 424.167 376.102 422.545Z" fill="url(#manga-09-paint-skin)" stroke="#343434" stroke-width="0.9"/></g></g>
  <g id="manga-09-chest"><g stroke-linecap="round" stroke-linejoin="round"><path d="M253 246Q298 231 343 246L340 324Q298 349 256 324Z" fill="url(#manga-09-paint-skin)" stroke="#343434" stroke-width="1.2"/></g></g>
  <g id="manga-09-waist"><g stroke-linecap="round" stroke-linejoin="round"><path d="M256 323Q298 343 340 323L343 423Q328 448 298 433Q269 448 253 423Z" fill="url(#manga-09-paint-skin)" stroke="#343434" stroke-width="1.2"/></g></g>
  <g id="manga-09-shoulders"><g stroke-linecap="round" stroke-linejoin="round"><path d="M231 254Q227 244 243 242Q258 243 258 252L252 261 236 261Z" fill="url(#manga-09-paint-skin)" stroke="#343434" stroke-width="1"/><path d="M339 254Q335 244 351 242Q366 243 366 252L360 261 344 261Z" fill="url(#manga-09-paint-skin)" stroke="#343434" stroke-width="1"/></g></g>
  <g id="manga-09-neck"><g stroke-linecap="round" stroke-linejoin="round"><path d="M283 192L280 240Q298 260 317 240L313 192Z" fill="url(#manga-09-paint-skin)" stroke="#343434" stroke-width="1.2"/><path d="M284 198Q298 212 313 196L312 213Q298 221 284 205Z" fill="#bcbcbc" stroke="none" stroke-width="1.2"/></g></g>
  <g id="manga-09-head"><g stroke-linecap="round" stroke-linejoin="round"><path d="M256.4 126.2C255.36 102.28 275.12 90.84 298 90.84C325.04 90.84 340.64 106.44 339.6 129.32L337.52 163.64C335.44 182.36 316.72 197.96 298 204.2C278.24 197.96 259.52 182.36 257.44 163.64Z" fill="url(#manga-09-paint-skin)" stroke="#343434" stroke-width="1.35"/></g></g>
  <g id="manga-09-forehead"><g stroke-linecap="round" stroke-linejoin="round"><path d="M270.96 117.88Q298 109.56 325.04 118.92L324 135.56Q298 130.36 272 135.56Z" fill="#eeeeee" stroke="none" stroke-width="1.05"/></g></g>
  <g id="manga-09-cheeks"><g stroke-linecap="round" stroke-linejoin="round"><path d="M266.8 168.84L268.88 170.92M272 168.84L274.08 170.92M277.2 168.84L279.28 170.92M318.8 168.84L320.88 170.92M324 168.84L326.08 170.92M329.2 167.8L331.28 169.88" fill="none" stroke="#bcbcbc" stroke-width="0.65"/></g></g>
  <g id="manga-09-jaw"><g stroke-linecap="round" stroke-linejoin="round"><path d="M259.52 170.92Q266.8 187.56 282.4 195.88M336.48 170.92Q329.2 187.56 313.6 195.88" fill="none" stroke="#bcbcbc" stroke-width="0.7"/></g></g>
  <g id="manga-09-chin"><g stroke-linecap="round" stroke-linejoin="round"><path d="M288.64 199Q298 204.2 307.36 199" fill="none" stroke="#bcbcbc" stroke-width="0.65"/></g></g>
  <g id="manga-09-ears"><g stroke-linecap="round" stroke-linejoin="round"><path d="M257.44 144.92Q246 137.64 247.04 153.24Q248.08 166.76 258.48 165.72ZM338.56 144.92Q350 137.64 348.96 153.24Q347.92 166.76 337.52 165.72Z" fill="url(#manga-09-paint-skin)" stroke="#343434" stroke-width="1.05"/><path d="M252.24 149.08Q248.08 153.24 254.32 158.44M343.76 149.08Q347.92 153.24 341.68 158.44" fill="none" stroke="#bcbcbc" stroke-width="0.85"/></g></g>
  <g id="manga-09-eyes"><g stroke-linecap="round" stroke-linejoin="round"><path d="M264.72 147Q275.12 136.6 287.6 145.96Q282.4 157.4 270.96 154.28ZM308.4 145.96Q320.88 136.6 331.28 147L325.04 154.28Q313.6 157.4 308.4 145.96Z" fill="#fff" stroke="#bcbcbc" stroke-width="0.8"/><ellipse cx="276.16" cy="147.52" rx="5.72" ry="7.176" fill="#666666" stroke="#343434" stroke-width="0.7"/><ellipse cx="276.16" cy="146.064" rx="2.704" ry="4.992" fill="#343434" stroke="none" stroke-width="1"/><path d="M272 151.16Q276.16 155.32 280.32 151.16" fill="none" stroke="#ababab" stroke-width="1.2"/><ellipse cx="274.392" cy="144.296" rx="1.976" ry="2.288" fill="#fff" stroke="none" stroke-width="1"/><ellipse cx="278.76" cy="150.12" rx="0.75" ry="0.8" fill="#fff" stroke="none" stroke-width="1"/><ellipse cx="319.84" cy="147.52" rx="5.72" ry="7.176" fill="#666666" stroke="#343434" stroke-width="0.7"/><ellipse cx="319.84" cy="146.064" rx="2.704" ry="4.992" fill="#343434" stroke="none" stroke-width="1"/><path d="M315.68 151.16Q319.84 155.32 324 151.16" fill="none" stroke="#ababab" stroke-width="1.2"/><ellipse cx="318.072" cy="144.296" rx="1.976" ry="2.288" fill="#fff" stroke="none" stroke-width="1"/><ellipse cx="322.44" cy="150.12" rx="0.75" ry="0.8" fill="#fff" stroke="none" stroke-width="1"/><path d="M263.68 145.96Q275.12 136.6 287.6 145.96M308.4 145.96Q320.88 136.6 332.32 145.96" fill="none" stroke="#343434" stroke-width="1.9"/><path d="M264.72 145.96L261.6 143.88M331.28 145.96L334.4 143.88M267.84 156.36Q276.16 159.48 283.44 155.32M312.56 155.32Q319.84 159.48 328.16 156.36" fill="none" stroke="#bcbcbc" stroke-width="0.65"/><path d="M265.76 133.48Q275.12 128.28 285.52 132.44M310.48 132.44Q320.88 128.28 330.24 133.48" fill="none" stroke="#393939" stroke-width="1.4"/></g></g>
  <g id="manga-09-nose"><g stroke-linecap="round" stroke-linejoin="round"><path d="M299.04 155.32Q296.96 161.56 295.92 165.72L299.04 167.8M301.12 167.8L303.2 166.76" fill="none" stroke="#bcbcbc" stroke-width="0.95"/><path d="M294.88 168.84L296.96 168.84" fill="none" stroke="#343434" stroke-width="0.6"/></g></g>
  <g id="manga-09-mouth"><g stroke-linecap="round" stroke-linejoin="round"><path d="M287.6 180.28Q298 186.52 309.44 179.24Q301.12 187.56 292.8 184.44Z" fill="#fff" stroke="#343434" stroke-width="0.85"/></g></g>
  <g id="manga-09-lips"><g stroke-linecap="round" stroke-linejoin="round"><path d="M287.6 180.28Q298 184.44 309.44 179.24M294.88 189.64Q299.04 190.68 303.2 188.6" fill="none" stroke="#bcbcbc" stroke-width="0.85"/></g></g>
  <g id="manga-09-shirt"><g stroke-linecap="round" stroke-linejoin="round"><path d="M270.263 259.963Q254.763 298.463 237.592 335.744Q225.406 370.443 202.678 401.946L181.922 394.654Q183.894 355.857 196.408 320.256Q210.237 280.537 225.737 242.037Q258.756 224.284 270.263 259.963Z" fill="url(#manga-09-paint-cloth)" stroke="#343434" stroke-width="1.2"/><path d="M184.574 387.106L205.33 394.399 201.684 404.777 180.927 397.484Z" fill="#c7c7c7" stroke="#343434" stroke-width="0.8"/><path d="M204 309Q208 319 225 325L214 332 208 342 211 329 203 323ZM229 336L220 343 224 350 227 340Z" fill="#c7c7c7" stroke="none" stroke-width="1.2"/><path d="M205 315L219 322 209 328M228 325L216 333 226 339M207 340L219 337" fill="none" stroke="#424242" stroke-width="0.9"/><path d="M205 304L209 309M204 308L207 312M226 345L224 349M212 343L216 340M210 346L214 343" fill="none" stroke="#c7c7c7" stroke-width="0.55"/><path d="M241.8 266.4Q211 303 207 319" fill="none" stroke="#c7c7c7" stroke-width="1.5"/><path d="M370.059 241.546Q386.559 280.046 402.032 325.052Q397.601 372.085 381.463 412.03L359.637 409.27Q353.949 366.565 359.968 330.948Q342.441 298.954 325.941 260.454Q336.655 224.529 370.059 241.546Z" fill="url(#manga-09-paint-cloth)" stroke="#343434" stroke-width="1.2"/><path d="M360.64 401.333L382.467 404.093 381.087 415.006 359.261 412.246Z" fill="#c7c7c7" stroke="#343434" stroke-width="0.8"/><path d="M368 309Q372 319 389 325L378 332 372 342 375 329 367 323ZM393 336L384 343 388 350 391 340Z" fill="#c7c7c7" stroke="none" stroke-width="1.2"/><path d="M369 315L383 322 373 328M392 325L380 333 390 339M371 340L383 337" fill="none" stroke="#424242" stroke-width="0.9"/><path d="M369 304L373 309M368 308L371 312M390 345L388 349M376 343L380 340M374 346L378 343" fill="none" stroke="#c7c7c7" stroke-width="0.55"/><path d="M354.6 266.4Q387 303 391 319" fill="none" stroke="#c7c7c7" stroke-width="1.5"/><path d="M242 246L277 232Q298 254 319 232L354 246Q356 291 343 333L349 410Q308 427 245 420L254 336Q239 287 242 246Z" fill="url(#manga-09-paint-cloth)" stroke="#343434" stroke-width="1.2"/><path d="M277 232L298 255 280 275 264 240ZM319 232L298 255 316 275 332 240Z" fill="#fafafa" stroke="#343434" stroke-width="1"/><path d="M280 240L294 255 281 268M316 240L302 255 315 268" fill="none" stroke="#c7c7c7" stroke-width="0.7"/><ellipse cx="298" cy="278" rx="2.4" ry="2.4" fill="#fafafa" stroke="#343434" stroke-width="0.7"/><path d="M297.3 277.4L298.7 278.6" fill="none" stroke="#424242" stroke-width="0.6"/><ellipse cx="298" cy="300" rx="2.4" ry="2.4" fill="#fafafa" stroke="#343434" stroke-width="0.7"/><path d="M297.3 299.4L298.7 300.6" fill="none" stroke="#424242" stroke-width="0.6"/><ellipse cx="298" cy="322" rx="2.4" ry="2.4" fill="#fafafa" stroke="#343434" stroke-width="0.7"/><path d="M297.3 321.4L298.7 322.6" fill="none" stroke="#424242" stroke-width="0.6"/><ellipse cx="298" cy="344" rx="2.4" ry="2.4" fill="#fafafa" stroke="#343434" stroke-width="0.7"/><path d="M297.3 343.4L298.7 344.6" fill="none" stroke="#424242" stroke-width="0.6"/><ellipse cx="298" cy="366" rx="2.4" ry="2.4" fill="#fafafa" stroke="#343434" stroke-width="0.7"/><path d="M297.3 365.4L298.7 366.6" fill="none" stroke="#424242" stroke-width="0.6"/><ellipse cx="298" cy="388" rx="2.4" ry="2.4" fill="#fafafa" stroke="#343434" stroke-width="0.7"/><path d="M297.3 387.4L298.7 388.6" fill="none" stroke="#424242" stroke-width="0.6"/><ellipse cx="298" cy="410" rx="2.4" ry="2.4" fill="#fafafa" stroke="#343434" stroke-width="0.7"/><path d="M297.3 409.4L298.7 410.6" fill="none" stroke="#424242" stroke-width="0.6"/></g></g>
  <g id="manga-09-skirt"><g stroke-linecap="round" stroke-linejoin="round"><path d="M251 402Q298 395 345 402L374 518 357 528 332 525 309 533 286 529 261 532 237 527 219 518Z" fill="url(#manga-09-paint-plaid)" stroke="#343434" stroke-width="1.2"/><path d="M254 415L232 521 242 525 259 415Z" fill="#424242" stroke="none" stroke-width="1.2"/><path d="M260 421Q262 474 244 520" fill="none" stroke="#c7c7c7" stroke-width="0.7"/><path d="M271 415L257.5 521 267.5 525 276 415Z" fill="#424242" stroke="none" stroke-width="1.2"/><path d="M277 421Q279 474 269.5 520" fill="none" stroke="#c7c7c7" stroke-width="0.7"/><path d="M288 415L283 521 293 525 293 415Z" fill="#424242" stroke="none" stroke-width="1.2"/><path d="M294 421Q296 474 295 520" fill="none" stroke="#c7c7c7" stroke-width="0.7"/><path d="M305 415L308.5 521 318.5 525 310 415Z" fill="#424242" stroke="none" stroke-width="1.2"/><path d="M311 421Q313 474 320.5 520" fill="none" stroke="#c7c7c7" stroke-width="0.7"/><path d="M322 415L334 521 344 525 327 415Z" fill="#424242" stroke="none" stroke-width="1.2"/><path d="M328 421Q330 474 346 520" fill="none" stroke="#c7c7c7" stroke-width="0.7"/><path d="M339 415L359.5 521 369.5 525 344 415Z" fill="#424242" stroke="none" stroke-width="1.2"/><path d="M345 421Q347 474 371.5 520" fill="none" stroke="#c7c7c7" stroke-width="0.7"/><path d="M251 400Q298 394 345 400L347 414Q298 410 249 417Z" fill="#777777" stroke="#343434" stroke-width="1"/><path d="M224 511Q298 529 368 512" fill="none" stroke="#c7c7c7" stroke-width="0.8"/></g></g>
  <g id="manga-09-vest"><g stroke-linecap="round" stroke-linejoin="round"><path d="M266 237L250 244 259 301 250 412Q298 429 346 412L337 301 346 244 330 237 298 292Z" fill="url(#manga-09-paint-bottom)" stroke="#343434" stroke-width="1.2"/><path d="M268 239L298 298 328 239M253 404Q298 419 343 404" fill="none" stroke="#c7c7c7" stroke-width="3"/><path d="M268 313Q262 338 273 362M330 335L323 360M259 383L280 394 308 386" fill="none" stroke="#424242" stroke-width="1"/><path d="M274 319L284 336 274 353 264 336Z" fill="#c7c7c7" stroke="#343434" stroke-width="0.5"/><path d="M298 337L308 354 298 371 288 354Z" fill="#c7c7c7" stroke="#343434" stroke-width="0.5"/><path d="M322 319L332 336 322 353 312 336Z" fill="#c7c7c7" stroke="#343434" stroke-width="0.5"/></g></g>
  <g id="manga-09-socks"><g stroke-linecap="round" stroke-linejoin="round"><path d="M277.294 576.64Q275.716 608.64 272.144 640.517Q270.566 675.495 266.991 710.405L249.009 709.595Q248.588 674.505 250.166 639.483Q249.748 607.36 251.326 575.36Q264.31 576 277.294 576.64Z" fill="url(#manga-09-paint-bottom)" stroke="#343434" stroke-width="1.2"/><path d="M253.31 576L275.31 576M254.31 581L274.31 581M257.31 585L257.31 600M262.31 585L262.31 600M267.31 585L267.31 600M272.31 585L272.31 600" fill="none" stroke="#c7c7c7" stroke-width="0.7"/><path d="M339.597 574.554Q343.178 606.554 344.773 638.834Q348.362 673.881 349.953 709.084L332.047 710.916Q326.476 676.119 322.905 641.166Q317.34 609.446 313.759 577.446Q326.678 576 339.597 574.554Z" fill="url(#manga-09-paint-bottom)" stroke="#343434" stroke-width="1.2"/><path d="M315.678 576L337.678 576M316.678 581L336.678 581M319.678 585L319.678 600M324.678 585L324.678 600M329.678 585L329.678 600M334.678 585L334.678 600" fill="none" stroke="#c7c7c7" stroke-width="0.7"/></g></g>
  <g id="manga-09-shoes"><g stroke-linecap="round" stroke-linejoin="round"><path d="M268 701L249 701 247 719Q233 721 226 732Q222 740 234 743L271 741Q276 734 270 723Z" fill="url(#manga-09-paint-bottom)" stroke="#343434" stroke-width="1.2"/><path d="M272 736Q250 743 225 734L225 741Q246 749 272 743ZM272 742L261 744 261 748 272 746Z" fill="#424242" stroke="#343434" stroke-width="0.9"/><path d="M269 713Q258 717 246 714L244 721Q258 725 270 721Z" fill="#b0b0b0" stroke="#343434" stroke-width="0.9"/><path d="M253 715L246 715 245 721 252 721Z" fill="#c7c7c7" stroke="#343434" stroke-width="0.65"/><path d="M243 728Q234 724 229 732M268 730Q258 736 245 735M269 734L266 736M264 736L261 737M258 738L255 738" fill="none" stroke="#c7c7c7" stroke-width="0.65"/><path d="M331 701L350 701 352 719Q366 721 373 732Q377 740 365 743L328 741Q323 734 329 723Z" fill="url(#manga-09-paint-bottom)" stroke="#343434" stroke-width="1.2"/><path d="M327 736Q349 743 374 734L374 741Q353 749 327 743ZM327 742L338 744 338 748 327 746Z" fill="#424242" stroke="#343434" stroke-width="0.9"/><path d="M330 713Q341 717 353 714L355 721Q341 725 329 721Z" fill="#b0b0b0" stroke="#343434" stroke-width="0.9"/><path d="M346 715L353 715 354 721 347 721Z" fill="#c7c7c7" stroke="#343434" stroke-width="0.65"/><path d="M356 728Q365 724 370 732M331 730Q341 736 354 735M330 734L333 736M335 736L338 737M341 738L344 738" fill="none" stroke="#c7c7c7" stroke-width="0.65"/></g></g>
  <g id="manga-09-hair"><g stroke-linecap="round" stroke-linejoin="round"><path d="M252.24 169.88Q237.68 136.6 247.04 106.44Q257.44 78.36 285.52 77.32Q320.88 65.88 342.72 97.08Q359.36 117.88 347.92 152.2L343.76 187.56Q343.76 213.56 360.4 222.92L346.88 243.72 329.2 236.44Q336.48 259.32 327.12 271.8L314.64 268.68 320.88 233.32 329.2 195.88 332.32 142.84Q313.6 137.64 306.32 112.68Q289.68 138.68 267.84 140.76L265.76 175.08Q263.68 207.32 274.08 229.16L270.96 262.44 256.4 264.52 260.56 243.72Q239.76 236.44 238.72 220.84L250.16 203.16Z" fill="url(#manga-09-paint-hair)" stroke="#343434" stroke-width="1.5"/><path d="M291.76 80.44C267.84 79.4 247.04 103.32 251.2 132.44Q252.24 109.56 266.8 103.32Q261.6 117.88 266.8 133.48C266.8 107.48 279.28 89.8 291.76 80.44Z" fill="url(#manga-09-paint-hair)" stroke="#393939" stroke-width="0.65"/><path d="M292.8 80.44C273.04 90.84 264.72 116.84 275.12 134.52Q288.64 131.4 294.88 125.16Q278.24 122.04 280.32 111.64Q288.64 96.04 292.8 80.44Z" fill="url(#manga-09-paint-hair)" stroke="#393939" stroke-width="0.65"/><path d="M294.88 79.4C287.6 96.04 287.6 115.8 292.8 124.12Q306.32 119.96 311.52 107.48Q300.08 111.64 300.08 100.2Q302.16 89.8 294.88 79.4Z" fill="url(#manga-09-paint-hair)" stroke="#393939" stroke-width="0.65"/><path d="M298 79.4C312.56 81.48 321.92 92.92 324 111.64Q325.04 128.28 335.44 140.76Q319.84 137.64 315.68 110.6Q313.6 93.96 298 79.4Z" fill="url(#manga-09-paint-hair)" stroke="#393939" stroke-width="0.65"/><path d="M308.4 80.44Q333.36 83.56 341.68 106.44C345.84 126.2 343.76 137.64 340.64 151.16Q338.56 126.2 332.32 114.76Q331.28 98.12 308.4 80.44Z" fill="url(#manga-09-paint-hair)" stroke="#393939" stroke-width="0.65"/><path d="M251.2 127.24Q244.96 161.56 251.2 184.44L254.32 201.08Q248.08 185.48 247.04 163.64Z" fill="url(#manga-09-paint-hair)" stroke="#393939" stroke-width="0.65"/><path d="M259.52 136.6Q255.36 167.8 263.68 194.84L266.8 202.12Q254.32 181.32 253.28 159.48Z" fill="url(#manga-09-paint-hair)" stroke="#393939" stroke-width="0.65"/><path d="M342.72 134.52Q350 160.52 345.84 186.52L341.68 200.04Q344.8 167.8 339.6 157.4Z" fill="url(#manga-09-paint-hair)" stroke="#393939" stroke-width="0.65"/><path d="M266.8 98.12Q278.24 85.64 288.64 84.6L282.4 89.8Q273.04 92.92 267.84 101.24ZM270.96 102.28L274.08 100.2 272 107.48 268.88 110.6ZM281.36 97.08Q282.4 92.92 286.56 91.88L282.4 102.28 278.24 105.4ZM301.12 86.68Q311.52 90.84 316.72 100.2L314.64 105.4Q310.48 92.92 301.12 86.68ZM326.08 98.12L329.2 103.32 331.28 111.64 328.16 107.48ZM252.24 161.56L254.32 176.12 256.4 182.36 256.4 171.96ZM342.72 159.48L343.76 171.96 341.68 183.4 340.64 171.96Z" fill="#ababab" stroke="none" stroke-width="1.05"/><path d="M290.72 82.52Q267.84 92.92 265.76 117.88" fill="none" stroke="#393939" stroke-width="0.55"/><path d="M286.56 86.68Q265.76 104.36 267.84 126.2" fill="none" stroke="#393939" stroke-width="0.55"/><path d="M293.84 82.52Q279.28 105.4 285.52 121" fill="none" stroke="#393939" stroke-width="0.55"/><path d="M299.04 85.64Q293.84 107.48 301.12 116.84" fill="none" stroke="#393939" stroke-width="0.55"/><path d="M307.36 85.64Q319.84 95 321.92 117.88" fill="none" stroke="#393939" stroke-width="0.55"/><path d="M318.8 86.68Q334.4 99.16 337.52 122.04" fill="none" stroke="#393939" stroke-width="0.55"/><path d="M252.24 122.04Q249.12 141.8 252.24 154.28" fill="none" stroke="#393939" stroke-width="0.55"/><path d="M258.48 140.76Q256.4 170.92 262.64 187.56" fill="none" stroke="#393939" stroke-width="0.55"/><path d="M340.64 144.92Q345.84 177.16 339.6 192.76" fill="none" stroke="#393939" stroke-width="0.55"/><path d="M251.2 143.88Q250.16 176.12 256.4 195.88M256.4 153.24Q253.28 178.2 262.64 199M339.6 144.92Q342.72 177.16 338.56 197.96M335.44 161.56Q334.4 179.24 332.32 190.68" fill="none" stroke="#393939" stroke-width="0.9"/><path d="M253.28 176.12Q248.08 202.12 259.52 219.8Q268.88 238.52 263.68 252.04M341.68 177.16Q333.36 201.08 345.84 218.76L338.56 233.32M247.04 208.36Q248.08 228.12 256.4 234.36" fill="none" stroke="#ababab" stroke-width="1"/></g></g>
  <g id="manga-09-hands"><g stroke-linecap="round" stroke-linejoin="round"><path d="M183.004 403.642Q177.667 409.78 175.826 418.037Q178.873 424.449 190.643 424.133L194.928 414.954 195.269 407.951Z" fill="url(#manga-09-paint-skin)" stroke="#343434" stroke-width="0.9"/><path d="M376.418 420.045Q378.446 427.921 376.4 436.13Q370.807 440.503 360.421 434.956L360.693 424.83 363.521 418.414Z" fill="url(#manga-09-paint-skin)" stroke="#343434" stroke-width="0.9"/></g></g>
  <g id="manga-09-palms"><g stroke-linecap="round" stroke-linejoin="round"><path d="M182.663 410.645Q188.881 411.049 191.262 416.338L189.313 421.885Q183.482 423.398 180.157 417.778Z" fill="#eeeeee" stroke="none" stroke-width="0.9"/><path d="M181.271 414.608Q185.88 413.556 188.818 417.26M180.822 418.902L187.04 419.306" fill="none" stroke="#bcbcbc" stroke-width="0.55"/><path d="M373.591 426.461Q367.849 424.042 363.354 427.707L362.616 433.54Q367.155 437.501 372.642 433.961Z" fill="#eeeeee" stroke="none" stroke-width="0.9"/><path d="M373.064 430.628Q369.412 427.626 365.127 429.624M371.545 434.669L365.803 432.25" fill="none" stroke="#bcbcbc" stroke-width="0.55"/></g></g>
  <g id="manga-09-fingers"><g stroke-linecap="round" stroke-linejoin="round"><path d="M179.276 411.236Q176.445 410.241 172.888 414.333L168.387 418.094Q166.329 420.932 169.438 421.134L175.548 418.829 177.991 417.907ZM177.048 417.576L173.15 428.671Q173.258 431.38 175.702 430.458L181.208 420.818ZM181.208 420.818L176.475 434.291Q177.526 437.331 180.527 434.824L185.926 422.476ZM185.926 422.476L182.971 433.902Q184.022 436.943 186.08 434.104L189.978 423.009ZM190.535 421.424L189.08 431.597Q190.132 434.638 192.189 431.799L194.587 421.957Z" fill="url(#manga-09-paint-skin)" stroke="#343434" stroke-width="0.9"/><path d="M176.429 425.371L178.316 426.034M180.032 430.199L181.919 430.862M185.585 429.479L187.472 430.142M190.473 427.635L192.36 428.298" fill="none" stroke="#bcbcbc" stroke-width="0.55"/><path d="M376.356 428.504Q379.333 428.88 380.685 434.131L383.029 439.508Q383.599 442.967 380.728 441.757L376.295 436.963 374.521 435.045ZM375.513 435.171L374.038 446.838Q372.73 449.213 370.957 447.295L370.342 436.21ZM370.342 436.21L368.551 450.378Q366.251 452.627 364.688 449.043L365.382 435.583ZM365.382 435.583L362.914 447.125Q360.614 449.374 360.043 445.915L361.519 434.248ZM361.729 432.581L358.481 442.331Q356.18 444.58 355.61 441.121L357.866 431.246Z" fill="url(#manga-09-paint-skin)" stroke="#343434" stroke-width="0.9"/><path d="M372.581 442.42L370.597 442.169M367.199 445.127L365.215 444.876M362.554 441.999L360.57 441.748M359.008 438.164L357.023 437.913" fill="none" stroke="#bcbcbc" stroke-width="0.55"/></g></g>
</svg>
